<svg width="0" height="0" class="hidden">
  <symbol xmlns="http://www.w3.org/2000/svg" viewBox="0 0 98 96" id="github">
    <path fill-rule="evenodd" clip-rule="evenodd" d="M48.854 0C21.839 0 0 22 0 49.217c0 21.756 13.993 40.172 33.405 46.69 2.427.49 3.316-1.059 3.316-2.362 0-1.141-.08-5.052-.08-9.127-13.59 2.934-16.42-5.867-16.42-5.867-2.184-5.704-5.42-7.17-5.42-7.17-4.448-3.015.324-3.015.324-3.015 4.934.326 7.523 5.052 7.523 5.052 4.367 7.496 11.404 5.378 14.235 4.074.404-3.178 1.699-5.378 3.074-6.6-10.839-1.141-22.243-5.378-22.243-24.283 0-5.378 1.94-9.778 5.014-13.2-.485-1.222-2.184-6.275.486-13.038 0 0 4.125-1.304 13.426 5.052a46.97 46.97 0 0 1 12.214-1.63c4.125 0 8.33.571 12.213 1.63 9.302-6.356 13.427-5.052 13.427-5.052 2.67 6.763.97 11.816.485 13.038 3.155 3.422 5.015 7.822 5.015 13.2 0 18.905-11.404 23.06-22.324 24.283 1.78 1.548 3.316 4.481 3.316 9.126 0 6.6-.08 11.897-.08 13.526 0 1.304.89 2.853 3.316 2.364 19.412-6.52 33.405-24.935 33.405-46.691C97.707 22 75.788 0 48.854 0z"></path>
  </symbol>
  <symbol xmlns="http://www.w3.org/2000/svg" viewBox="0 0 50 50" id="linkedin">
    <path d="M41,4H9C6.24,4,4,6.24,4,9v32c0,2.76,2.24,5,5,5h32c2.76,0,5-2.24,5-5V9C46,6.24,43.76,4,41,4z M17,20v19h-6V20H17z M11,14.47c0-1.4,1.2-2.47,3-2.47s2.93,1.07,3,2.47c0,1.4-1.12,2.53-3,2.53C12.2,17,11,15.87,11,14.47z M39,39h-6c0,0,0-9.26,0-10 c0-2-1-4-3.5-4.04h-0.08C27,24.96,26,27.02,26,29c0,0.91,0,10,0,10h-6V20h6v2.56c0,0,1.93-2.56,5.81-2.56 c3.97,0,7.19,2.73,7.19,8.26V39z"></path>
  </symbol>
  <symbol xmlns="http://www.w3.org/2000/svg" viewBox="0 97 100 119.24" id="name">
    <path d="M58.513 107.287c-2.085 14.04-4.866 27.942-7.785 41.983-4.31 20.852-6.812 41.427-16.543 53.938-4.726 6.117-13.901 9.453-20.296 7.09-1.39-.417-2.363-1.668-3.058-3.475-1.669 0-3.337-.279-4.866-.835-5.283-1.946-7.229-12.928-5.144-23.076 7.646.973 15.71-1.39 17.794-5.7 4.866-10.148 9.453-34.893 11.678-52.409 2.502-19.601-.695-25.3 24.606-27.525-.557 3.753-1.113 7.368-1.808 10.704 1.808-.278 3.615-.417 5.422-.695zm-7.785-6.117c-5.283.557-10.704 1.53-14.04 5.422-.696.834-1.252 3.614-1.669 7.368-.417 3.475-.834 7.785-1.25 11.26-2.225 17.516-6.813 42.678-11.956 53.521-3.059 6.117-12.512 8.48-18.211 7.924-1.112 6.534-.14 14.736 3.614 15.987 6.117 2.224 14.875-.973 19.462-6.812 4.727-6.116 7.785-14.318 10.148-23.632s4.171-19.602 6.256-30.028c2.92-13.623 5.56-27.247 7.646-41.01zm46.122 29.75c-10.01 5.7-17.933 12.094-22.799 22.52-4.865 10.149-8.758 22.521-5.977 33.781 4.31 2.642 10.704-.695 15.292-2.224 1.112 4.031 1.25 8.202.417 12.094 1.807-.556 3.475-1.25 4.587-1.529 1.39 4.449 0 11.26-3.892 15.848-2.92 3.475-7.23 5.283-12.234 4.727-3.614-.278-6.95-2.086-9.592-4.588-7.646-1.807-13.484-8.619-15.57-15.43-5.56-17.934-2.919-36.562 2.92-53.105 6.116-16.82 24.05-37.812 39.62-46.014 1.945 2.502 3.614 6.812 4.726 11.4.417-.279.973-.557 1.529-.835 2.92 3.893 7.09 19.88.973 23.355zm-7.229-7.507c5.144-3.058 1.946-17.238-.973-21.965-12.65 6.951-29.61 26.83-35.31 42.817-5.839 15.987-8.202 33.92-2.92 50.88 2.086 6.534 7.925 12.65 14.875 13.346 4.866.556 8.897-1.251 11.678-4.449 3.614-4.31 4.865-10.287 4.031-14.596-2.92 1.112-5.838 2.224-8.897 2.224-3.892.139-7.924-1.39-10.148-6.951-5.283-12.65-.973-27.108 4.449-38.507 5.143-10.705 13.067-17.1 23.215-22.799z"></path>
  </symbol>
	<symbol xmlns="http://www.w3.org/2000/svg" viewBox="0 0 512 512" id="sun">
		<path d="M256,144c-61.75,0-112,50.25-112,112s50.25,112,112,112s112-50.25,112-112S317.75,144,256,144z M256,336    c-44.188,0-80-35.812-80-80c0-44.188,35.812-80,80-80c44.188,0,80,35.812,80,80C336,300.188,300.188,336,256,336z M256,112    c8.833,0,16-7.167,16-16V64c0-8.833-7.167-16-16-16s-16,7.167-16,16v32C240,104.833,247.167,112,256,112z M256,400    c-8.833,0-16,7.167-16,16v32c0,8.833,7.167,16,16,16s16-7.167,16-16v-32C272,407.167,264.833,400,256,400z M380.438,154.167    l22.625-22.625c6.25-6.25,6.25-16.375,0-22.625s-16.375-6.25-22.625,0l-22.625,22.625c-6.25,6.25-6.25,16.375,0,22.625    S374.188,160.417,380.438,154.167z M131.562,357.834l-22.625,22.625c-6.25,6.249-6.25,16.374,0,22.624s16.375,6.25,22.625,0    l22.625-22.624c6.25-6.271,6.25-16.376,0-22.625C147.938,351.583,137.812,351.562,131.562,357.834z M112,256    c0-8.833-7.167-16-16-16H64c-8.833,0-16,7.167-16,16s7.167,16,16,16h32C104.833,272,112,264.833,112,256z M448,240h-32    c-8.833,0-16,7.167-16,16s7.167,16,16,16h32c8.833,0,16-7.167,16-16S456.833,240,448,240z M131.541,154.167    c6.251,6.25,16.376,6.25,22.625,0c6.251-6.25,6.251-16.375,0-22.625l-22.625-22.625c-6.25-6.25-16.374-6.25-22.625,0    c-6.25,6.25-6.25,16.375,0,22.625L131.541,154.167z M380.459,357.812c-6.271-6.25-16.376-6.25-22.625,0    c-6.251,6.25-6.271,16.375,0,22.625l22.625,22.625c6.249,6.25,16.374,6.25,22.624,0s6.25-16.375,0-22.625L380.459,357.812z"></path>
	</symbol>
	<symbol xmlns="http://www.w3.org/2000/svg" viewBox="0 0 16 16" id="moon">
		<path d="M6 .278a.768.768 0 0 1 .08.858 7.208 7.208 0 0 0-.878 3.46c0 4.021 3.278 7.277 7.318 7.277.527 0 1.04-.055 1.533-.16a.787.787 0 0 1 .81.316.733.733 0 0 1-.031.893A8.349 8.349 0 0 1 8.344 16C3.734 16 0 12.286 0 7.71 0 4.266 2.114 1.312 5.124.06A.752.752 0 0 1 6 .278zM4.858 1.311A7.269 7.269 0 0 0 1.025 7.71c0 4.02 3.279 7.276 7.319 7.276a7.316 7.316 0 0 0 5.205-2.162c-.337.042-.68.063-1.029.063-4.61 0-8.343-3.714-8.343-8.29 0-1.167.242-2.278.681-3.286z"></path>
	</symbol>
</svg>
