<svg width="16" height="16" xmlns="http://www.w3.org/2000/svg" viewBox="0 97 100 119.24" fill="#fe5b02">
    <path d="M58.513 107.287c-2.085 14.04-4.866 27.942-7.785 41.983-4.31 20.852-6.812 41.427-16.543 53.938-4.726 6.117-13.901 9.453-20.296 7.09-1.39-.417-2.363-1.668-3.058-3.475-1.669 0-3.337-.279-4.866-.835-5.283-1.946-7.229-12.928-5.144-23.076 7.646.973 15.71-1.39 17.794-5.7 4.866-10.148 9.453-34.893 11.678-52.409 2.502-19.601-.695-25.3 24.606-27.525-.557 3.753-1.113 7.368-1.808 10.704 1.808-.278 3.615-.417 5.422-.695zm-7.785-6.117c-5.283.557-10.704 1.53-14.04 5.422-.696.834-1.252 3.614-1.669 7.368-.417 3.475-.834 7.785-1.25 11.26-2.225 17.516-6.813 42.678-11.956 53.521-3.059 6.117-12.512 8.48-18.211 7.924-1.112 6.534-.14 14.736 3.614 15.987 6.117 2.224 14.875-.973 19.462-6.812 4.727-6.116 7.785-14.318 10.148-23.632s4.171-19.602 6.256-30.028c2.92-13.623 5.56-27.247 7.646-41.01zm46.122 29.75c-10.01 5.7-17.933 12.094-22.799 22.52-4.865 10.149-8.758 22.521-5.977 33.781 4.31 2.642 10.704-.695 15.292-2.224 1.112 4.031 1.25 8.202.417 12.094 1.807-.556 3.475-1.25 4.587-1.529 1.39 4.449 0 11.26-3.892 15.848-2.92 3.475-7.23 5.283-12.234 4.727-3.614-.278-6.95-2.086-9.592-4.588-7.646-1.807-13.484-8.619-15.57-15.43-5.56-17.934-2.919-36.562 2.92-53.105 6.116-16.82 24.05-37.812 39.62-46.014 1.945 2.502 3.614 6.812 4.726 11.4.417-.279.973-.557 1.529-.835 2.92 3.893 7.09 19.88.973 23.355zm-7.229-7.507c5.144-3.058 1.946-17.238-.973-21.965-12.65 6.951-29.61 26.83-35.31 42.817-5.839 15.987-8.202 33.92-2.92 50.88 2.086 6.534 7.925 12.65 14.875 13.346 4.866.556 8.897-1.251 11.678-4.449 3.614-4.31 4.865-10.287 4.031-14.596-2.92 1.112-5.838 2.224-8.897 2.224-3.892.139-7.924-1.39-10.148-6.951-5.283-12.65-.973-27.108 4.449-38.507 5.143-10.705 13.067-17.1 23.215-22.799z"></path>
</svg>